<?xml version="1.0" encoding="UTF-8"?>
<svg width="752pt" height="752pt" version="1.1" viewBox="0 0 752 752" xmlns="http://www.w3.org/2000/svg">
 <g>
  <path d="m161.47 479.24c2.3672 0 4.7344-0.94531 6.6289-2.8398l21.312-18.469c4.2617-3.7891 9.9453-5.6836 15.629-5.6836 5.6836 0 11.367 1.8945 15.629 5.6836l11.84 9.9453c8.0508 6.6289 17.996 10.418 29.363 10.418 11.367 0 21.312-3.7891 29.363-10.418l11.84-10.418c4.2617-3.7891 9.9453-5.6836 15.629-5.6836s11.367 1.8945 15.629 6.1562l11.84 9.9453c8.0508 6.6289 18.469 10.418 29.363 10.418 10.891 0 21.312-3.7891 29.363-10.418l11.84-10.418c4.2617-3.7891 9.9453-5.6836 15.629-5.6836 5.6836 0 11.367 1.8945 15.629 5.6836l11.84 10.418c8.0508 6.6289 18.469 10.418 29.363 10.418 11.367 0 21.312-3.7891 29.363-10.418l11.84-10.418c4.2617-3.7891 9.9453-5.6836 15.629-5.6836s11.367 1.8945 15.629 5.6836l21.312 18.469c1.8945 1.8945 4.2617 2.8398 6.6289 2.8398 2.8398 0 6.1562-1.4219 8.0508-3.7891 1.8945-1.8945 2.8398-4.7344 2.3672-7.5781 0-2.8398-1.4219-5.2109-3.7891-7.1055l-20.379-17.992c-8.0508-7.1055-18.469-10.891-29.363-10.891-10.891 0-21.312 3.7891-29.363 10.891l-11.84 10.418c-3.7891 3.3164-9.4727 5.2109-15.629 5.2109-5.6836 0-11.367-1.8945-15.629-5.6836l-11.836-9.9453c-8.0508-7.1055-18.469-10.891-29.363-10.891-3.3164 0-7.1055 0.47266-10.418 1.4219l2.8398-34.57c19.418-8.9961 20.836-35.992 24.625-63.934 4.7344-34.098 16.574-127.39 16.574-127.39 0.94531-8.5234-4.7344-15.629-13.262-16.574-8.5234-0.94531-15.629 4.7344-16.574 13.262l-8.0508 67.723c-0.47266 2.3672-2.3672 4.2617-4.7344 4.2617h-0.47266c-2.3672 0-4.7344-2.3672-4.2617-4.7344l3.7891-87.613c0.47266-8.5234-6.1562-15.629-14.207-15.629-8.0508-0.47266-15.156 6.1562-15.629 14.207l-3.7891 87.613c0 2.3672-2.3672 4.7344-4.7344 4.2617-2.3672 0-4.2617-1.8945-4.2617-4.2617l-7.1016-102.3c-0.47266-8.5234-7.5781-14.68-16.102-14.207-8.5234 0.47266-14.68 7.5781-14.207 16.102l6.1562 97.559c0 2.8398-1.8945 5.2109-4.7344 4.7344h-1.4219c-2.3672 0-3.7891-1.8945-4.2617-3.7891l-13.734-80.035c-1.4219-8.0508-9.4727-13.734-17.523-12.312s-13.734 9.4727-12.312 17.523c0 0 11.84 65.355 13.734 79.09 1.8945 14.207 2.8398 21.785 3.3164 34.57 0.47266 7.1055-5.6836 11.367-12.312 4.7344 0 0-12.785-15.629-20.363-23.207-7.5781-7.5781-15.629-10.418-23.207-5.2109-8.0508 5.2109-10.418 16.102-4.7344 23.68 0 0 32.676 53.516 52.566 75.773 6.1562 7.1055 14.207 14.207 22.73 17.523l2.8398 33.152c-3.3164-0.94531-6.6289-1.4219-9.9453-1.4219-10.891 0-21.312 3.7891-29.363 10.891l-11.84 10.418c-3.7891 3.3164-9.4727 5.2109-15.156 5.2109-6.1562 0-11.367-1.8945-15.629-5.6836l-12.781-9.9414c-8.0508-7.1055-18.469-10.891-29.363-10.891-10.891-0.003906-21.312 3.7852-29.363 10.891l-21.312 18.469c-1.8945 1.8945-3.3164 4.2617-3.3164 7.1055 0 2.8398 0.47266 5.6836 2.3672 7.5781 1.8984 2.3633 4.7422 3.7852 7.582 3.7852z"/>
  <path d="m575.85 502.45c-8.0508-7.1055-18.469-10.891-29.363-10.891-10.891 0-21.312 3.7891-29.363 10.891l-11.84 10.418c-3.7891 3.3164-9.4727 5.2109-15.629 5.2109-5.6836 0-11.367-1.8945-15.629-5.6836l-11.84-9.9453c-8.0508-7.1055-18.469-10.891-29.363-10.891-10.891 0-20.836 3.7891-29.363 10.891l-12.312 10.418c-3.7891 3.3164-9.4727 5.2109-15.156 5.2109-6.1562 0-11.367-1.8945-15.629-5.6836l-11.84-9.9453c-8.5234-7.1055-18.469-10.891-29.363-10.891-10.891 0-21.312 3.7891-29.363 10.891l-11.84 10.418c-3.7891 3.3164-9.4727 5.2109-15.156 5.2109-6.1562 0-11.367-1.8945-15.629-5.6836l-11.84-9.9453c-8.0508-7.1055-18.469-10.891-29.363-10.891-10.891 0-21.312 3.7891-29.363 10.891l-21.312 18.469c-1.8945 1.8945-3.3164 4.2617-3.3164 7.1055 0 2.8398 0.47266 5.6836 2.3672 7.5781 1.8945 2.3672 4.7344 3.7891 8.0508 3.7891 2.3672 0 4.7344-0.94531 6.6289-2.8398l21.312-18.469c4.2617-3.7891 9.9453-5.6836 15.629-5.6836s11.367 1.8945 15.629 5.6836l11.84 9.9453c8.0508 6.6289 17.996 10.418 29.363 10.418s21.312-3.7891 29.363-10.418l11.84-10.418c4.2617-3.7891 9.9453-5.6836 15.629-5.6836s11.367 1.8945 15.629 6.1562l11.84 9.9453c8.0508 6.6289 18.469 10.418 29.363 10.418 10.891 0 21.312-3.7891 29.363-10.418l11.84-10.418c4.2617-3.7891 9.9453-5.6836 15.629-5.6836 5.6836 0 11.367 1.8945 15.629 5.6836l11.84 10.418c8.0508 6.6289 18.469 10.418 29.363 10.418 11.367 0 21.312-3.7891 29.363-10.418l11.84-10.418c4.2617-3.7891 9.9453-5.6836 15.629-5.6836 5.6836 0 11.367 1.8945 15.629 5.6836l21.312 18.469c1.8945 1.8945 4.2617 2.8398 6.6289 2.8398 2.8398 0 6.1562-1.4219 8.0508-3.7891 1.8945-1.8945 2.8398-4.7344 2.3672-7.5781 0-2.8398-1.4219-5.2109-3.7891-7.1055z"/>
  <path d="m575.85 562.12c-8.5234-7.1016-18.941-10.891-29.359-10.891-10.891 0-21.312 3.7891-29.363 10.891l-11.84 10.418c-3.7891 3.3164-9.4727 5.2109-15.629 5.2109-5.6836 0-11.367-1.8945-15.629-5.6836l-11.84-9.9453c-8.0508-7.1016-18.941-10.891-29.359-10.891-10.891 0-20.836 3.7891-29.363 10.891l-12.312 10.418c-3.7891 3.3164-9.4727 5.2109-15.156 5.2109-6.1562 0-11.367-1.8945-15.629-5.6836l-11.84-9.9453c-8.5234-7.1016-18.469-10.891-29.359-10.891s-21.312 3.7891-29.363 10.891l-11.84 10.418c-3.7891 3.3164-9.4727 5.2109-15.156 5.2109-6.1562 0-11.367-1.8945-15.629-5.6836l-11.84-9.9453c-8.5195-7.1016-18.938-10.891-29.832-10.891-10.891 0-21.312 3.7891-29.363 10.891l-21.312 18.469c-1.8945 1.8945-3.3164 4.2617-3.3164 7.1055 0 2.8398 0.47266 5.6836 2.3672 7.5781 1.8945 2.3672 4.7344 3.7891 8.0508 3.7891 2.3672 0 4.7344-0.94531 6.6289-2.8398l21.312-18.469c4.2617-3.7891 9.9453-5.6836 15.629-5.6836 5.6836 0 11.367 1.8945 15.629 5.6836l11.84 9.9453c8.0508 6.6289 17.996 10.418 29.363 10.418 11.367 0 21.312-3.7891 29.363-10.418l11.84-10.418c4.2617-3.7891 9.9453-5.6836 15.629-5.6836s11.367 1.8945 15.629 6.1562l11.84 9.9453c8.0508 6.6289 18.469 10.418 29.363 10.418 10.891 0 21.312-3.7891 29.363-10.418l11.84-10.418c4.2617-3.7891 9.9453-5.6836 15.629-5.6836 5.6836 0 11.367 1.8945 15.629 5.6836l11.84 10.418c8.0508 6.6289 18.469 10.418 29.363 10.418 11.367 0 21.312-3.7891 29.363-10.418l11.84-10.418c4.2617-3.7891 9.9453-5.6836 15.629-5.6836s11.367 1.8945 15.629 5.6836l21.312 18.469c1.8945 1.8945 4.2617 2.8398 6.6289 2.8398 2.8398 0 6.1562-1.4219 8.0508-3.7891 1.8945-1.8945 2.8398-4.7344 2.3672-7.5781 0-2.8398-1.4219-5.2109-3.7891-7.1055z"/>
 </g>
</svg>
