<?xml version="1.0" encoding="UTF-8"?>
<svg width="752pt" height="752pt" version="1.1" viewBox="0 0 752 752" xmlns="http://www.w3.org/2000/svg">
 <g>
  <path d="m257.61 250.21h59.199v14.801h-59.199z"/>
  <path d="m361.2 597.99h29.598c4.4414 0 7.3984-2.9609 7.3984-7.3984v-184.99h125.8c4.4414 0 7.3984-2.9609 7.3984-7.3984v-125.8c0-37-29.598-66.598-66.598-66.598h-66.598v-7.3984h44.398c4.4414 0 7.3984-2.9609 7.3984-7.3984l0.003906-29.602c0-4.4414-2.9609-7.3984-7.3984-7.3984h-74c-4.4414 0-7.3984 2.9609-7.3984 7.3984v44.398h-74c-37 0-66.598 29.598-66.598 66.598v125.8c0 4.4414 2.9609 7.3984 7.3984 7.3984h125.8v184.99c0 4.4375 2.9609 7.3984 7.4023 7.3984zm22.199-14.801h-14.801v-177.59h14.801zm-7.4023-414.38h59.199v14.801h-44.398c-4.4414 0-7.3984 2.9609-7.3984 7.3984v118.39h-7.3984zm-36.996 221.99h-103.6v-118.39c0-28.859 22.938-51.797 51.797-51.797s51.797 22.938 51.797 51.797zm-10.359-170.19h32.559v96.195c0 4.4414 2.9609 7.3984 7.3984 7.3984h22.199c4.4414 0 7.3984-2.9609 7.3984-7.3984v-96.195h66.598c28.859 0 51.797 22.938 51.797 51.797v118.39h-162.79l-0.003907-118.39c0-20.719-9.6172-39.219-25.156-51.797z"/>
 </g>
</svg>
