<?xml version="1.0" encoding="UTF-8"?>
<svg width="752pt" height="752pt" version="1.1" viewBox="0 0 752 752" xmlns="http://www.w3.org/2000/svg">
 <path d="m528.64 329.5v-4.2617c0-20.887 0-55.883-25.48-64.598-4.9688-2.0586-10.41-2.707-15.727-1.8711-5.3125 0.83594-10.293 3.1211-14.391 6.6055-2.0781-5.9961-5.8828-11.246-10.941-15.078-5.0586-3.8359-11.137-6.0859-17.473-6.4688-9.25-1.3086-18.559 1.9609-24.961 8.7617-2.625-5.9727-6.957-11.035-12.449-14.559-5.4922-3.5195-11.902-5.3438-18.426-5.2383-7.5352-0.56641-14.977 1.9297-20.648 6.9141-1.5352 1.5508-2.8008 3.3398-3.7422 5.3047-7.4297-5.2695-16.801-7-25.621-4.7344-12.738 2.9375-24.723 13.781-21.027 30.688l0.61719 2.6523c-43.379 16.766-60.762 45.984-65.496 56.5-8.3516-0.03125-16.336 3.3984-22.07 9.4688-5.1445 5.3906-7.793 12.691-7.293 20.129 2.2266 31.258 22.969 71.039 52.805 100.73 18.434 18.82 40.465 33.738 64.785 43.867 24.316 10.129 50.426 15.262 76.77 15.094 24.984 0.74609 49.168-8.8672 66.82-26.57 44.895-45.32 44.188-134.16 43.949-163.34zm-188.15 35.328c1.2031 5.6992-1.7656 11.457-7.1055 13.781-6.5117 2.1602-13.629 1.4727-19.605-1.8945 5.5977-10.926 13.539-20.48 23.254-27.988 1.418 6.6289 2.6992 12.078 3.457 16.102zm-46.648-2.3203c8.8594-15.629 21.535-28.762 36.844-38.172l1.5625 6.2031 1.8945 7.4844c-12.371 8.6484-22.477 20.148-29.457 33.531-3.8516-2.7227-7.4766-5.7461-10.844-9.0469zm34.191-48.684c-16.898 10.113-31.176 24.066-41.676 40.727-1.6094-1.8477-3.2695-3.7891-4.7344-5.918 10.836-18.012 26.199-32.871 44.562-43.098zm-7.3398-30.309c0.89844 3.9297 1.8477 7.8633 2.7461 11.699v-0.003907c-19.789 10.586-36.582 25.996-48.824 44.801-3.1367-3.543-7.0859-6.2734-11.508-7.9531 11.98-24.344 39.59-41.016 57.586-48.496zm156.71 202.08c-15.711 15.785-37.266 24.359-59.527 23.676-25.023 0.17578-49.824-4.6875-72.922-14.305-23.102-9.6172-44.027-23.789-61.527-41.672-34.238-34.336-48.258-72.223-49.82-94.195h-0.003906c-0.23438-4.6172 1.4844-9.1211 4.7383-12.406 3.7578-4.0352 9.0234-6.332 14.539-6.3477 5.8047 0.011718 11.285 2.6797 14.871 7.2461l0.28516 0.33203c13.828 18.941 26.188 29.742 36.609 35.613 16.621 9.4727 28.414 6.3477 32.629 4.4531h-0.003906c4.7656-2.0312 8.6875-5.6367 11.109-10.215 2.4258-4.5781 3.1992-9.8516 2.1992-14.934-1.4688-7.625-4.7344-19.652-8.3828-34.855-4.3086-16.953-9.4727-37.887-14.207-59.434-3.0781-14.207 10.562-17.855 13.309-18.516 8.6211-1.9883 18.941 0.51953 20.934 9.0938 1.7031 5.0664 3.2695 10.324 4.7344 15.582v-0.003906c-3.8008 1.7422-7.2539 4.1641-10.184 7.1523-1.9102 2.0898-1.7617 5.3359 0.33203 7.2422 2.0938 1.9102 5.3359 1.7617 7.2461-0.32812 1.582-1.5352 3.3672-2.8398 5.3047-3.8867 3.2188 12.645 5.8242 25.195 7.9102 36.418l-0.003906 0.003907c-4.332 1.7656-8.2617 4.3906-11.555 7.7188-1.9102 2.0898-1.7617 5.3359 0.33203 7.2461 2.0938 1.9062 5.3359 1.7578 7.2461-0.33203 1.7148-1.6953 3.6797-3.1172 5.8242-4.2148 3.125 18.422 4.7344 31.398 4.7344 31.684l0.003907-0.003906c0.19531 2.6602 2.4023 4.7188 5.0664 4.7383h0.56641c1.3867-0.097656 2.6719-0.75 3.5664-1.8125 0.89453-1.0625 1.3164-2.4414 1.1719-3.8242 0-0.28516-1.5625-13.969-4.7344-33.152l-0.003906 0.003907c2.1992-0.19141 4.4102-0.09375 6.5859 0.28125 2.7852 0.5 5.4453-1.3555 5.9414-4.1445 0.49609-2.7852-1.3594-5.4453-4.1445-5.9414-3.5273-0.65234-7.1367-0.78125-10.703-0.37891-2.1328-11.414-4.7344-24.105-8.0508-36.891 2.3867-0.33984 4.8125-0.33984 7.1992 0 2.7852 0.49609 5.4453-1.3594 5.9453-4.1445 0.49609-2.7852-1.3594-5.4492-4.1445-5.9453-3.875-0.63672-7.8242-0.63672-11.699 0-1.4219-5.0664-2.9375-10.039-4.7344-14.918-0.3125-3.793 0.85938-7.5625 3.2656-10.512 3.7969-2.9844 8.6016-4.375 13.402-3.8828 20.508 0 24.438 20.223 25.242 24.199v0.80469l1.0898 5.7773c-3.125 0.56641-6.1758 1.4883-9.0938 2.7461-2.6133 1.2031-3.7578 4.3008-2.5547 6.9141 1.2031 2.6172 4.2969 3.7617 6.9141 2.5586 2.1367-0.875 4.3594-1.5273 6.6289-1.9414 2.0352 11.32 4.1211 23.68 5.918 36.988h0.003907c-3.2617 0.56641-6.4414 1.5195-9.4727 2.8398-2.6172 1.2031-3.7617 4.2969-2.5586 6.9141 1.2031 2.6172 4.3008 3.7617 6.9141 2.5586 2.1211-0.875 4.3281-1.5273 6.582-1.9414 1.2305 10.562 2.2266 21.645 2.8398 33.152l0.003906-0.003907c0.19922 2.6758 2.4297 4.7422 5.1133 4.7383h0.28516c2.7891-0.20312 4.8984-2.6094 4.7344-5.4023-0.61719-11.555-1.6094-22.449-2.7461-32.82v0.003906c1.6562 0.37109 3.25 0.97656 4.7344 1.7969 1.1992 0.875 2.7188 1.1836 4.1641 0.84766 1.4453-0.33594 2.6719-1.2812 3.3672-2.5898 0.69141-1.3125 0.78516-2.8594 0.24609-4.2422-0.53516-1.3828-1.6445-2.4648-3.0391-2.9648-3.457-1.7969-7.2422-2.875-11.129-3.1719-1.7539-13.164-3.7422-25.336-5.7773-36.559v-0.003906c1.6523 0.35938 3.2461 0.94922 4.7344 1.7539 1.1992 0.87109 2.7188 1.1797 4.1641 0.84375 1.4414-0.33203 2.6719-1.2773 3.3633-2.5898 0.69531-1.3086 0.78516-2.8555 0.25-4.2383-0.53516-1.3828-1.6445-2.4648-3.043-2.9648-3.5938-1.9609-7.5664-3.1406-11.648-3.4609l-1.2773-6.8672c1.6094-8.6211 9.4727-13.734 19.699-12.738 4.6133 0.15625 9.0508 1.8047 12.648 4.7031 3.5938 2.8945 6.1523 6.8789 7.2891 11.352 0 0.56641 0.28516 2.4141 0.51953 4.2148h0.003906c0.16016 1.4805 0.39844 2.9492 0.70703 4.4062 0.28516 1.6562 0.51953 3.3164 0.75781 4.7344-1.5742-0.15234-3.1602-0.15234-4.7344 0-1.3516 0.16406-2.582 0.85547-3.418 1.9258-0.83984 1.0703-1.2188 2.4297-1.0586 3.7812 0.33984 2.8125 2.8945 4.8164 5.707 4.4766 1.668-0.16016 3.3516-0.03125 4.9727 0.37891 1.8477 13.402 3.125 25.762 3.9297 36.656v-0.003906c-1.9961-0.24609-4.0156-0.24609-6.0117 0-1.3516 0.16406-2.582 0.85938-3.4219 1.9297-0.83984 1.0703-1.2188 2.4297-1.0547 3.7773 0.33984 2.8125 2.8945 4.8164 5.707 4.4766 1.8594-0.19141 3.7383-0.03125 5.5391 0.47266 1.2773 22.496 0.80469 36.512 0.80469 36.797h0.003906c-0.13672 2.7734 1.9648 5.1484 4.7344 5.3516 2.6836 0.007812 4.9141-2.0586 5.1133-4.7344 0 0 0.42578-11.98-0.47266-31.066 1.1836 1.1367 1.9414 1.9414 1.9883 1.9883 1.8047 2.1836 5.0391 2.4922 7.2227 0.6875 1.0508-0.86719 1.7109-2.1172 1.8398-3.4688 0.12891-1.3555-0.28516-2.707-1.1523-3.7539-3.0352-3.4609-6.6367-6.375-10.656-8.6211-0.71094-10.086-1.7539-21.547-3.3164-33.957 1.1836 1.0898 1.8945 1.8945 1.9414 1.9414v0.003906c1.8047 2.1836 5.0391 2.4922 7.2227 0.6875 1.0508-0.86719 1.7109-2.1172 1.8398-3.4688 0.12891-1.3555-0.28516-2.707-1.1523-3.7539-3.3008-3.7891-7.2852-6.9219-11.746-9.2344-0.37891-2.6523-0.80469-5.3516-1.2773-8.0977v-0.003907c1.7461-2.6953 4.0977-4.9492 6.8672-6.582 5.5625-3.6328 12.586-4.2031 18.66-1.5156 17.098 5.8711 18.562 31.398 18.562 54.887v4.3555c0.19141 28.184 0.90234 113.8-41.012 156.05z"/>
</svg>
