<?xml version="1.0" encoding="UTF-8"?>
<svg width="752pt" height="752pt" version="1.1" viewBox="0 0 752 752" xmlns="http://www.w3.org/2000/svg">
 <g>
  <path d="m520.96 464.14c6.8086-5.7891 10.879-13.371 10.879-21.785 0-18.582-19.871-33.137-45.246-33.137h-67.91l-0.003906-82.996h26.484v-34.734h-41.773l-0.003906-85.66h9.2188c10.207 0 18.508-8.3008 18.508-18.512 0-10.207-8.3008-18.508-18.508-18.508h-95.203c-10.207 0-18.508 8.3008-18.508 18.508 0 10.207 8.3008 18.512 18.508 18.512h8.4492v85.66h-40.996v34.734h28.895v82.996h-79.965c-25.371 0-45.246 14.555-45.246 33.137 0 16.613 15.879 30.008 37.367 32.656-6.8086 5.7891-10.879 13.371-10.879 21.785 0 8.4062 4.0664 15.992 10.879 21.781-21.488 2.6602-37.367 16.055-37.367 32.656 0 18.582 19.875 33.141 45.246 33.141h146.87c25.371 0 45.246-14.559 45.246-33.141 0-8.1836-3.8516-15.582-10.328-21.301h97.504c25.371 0 45.25-14.555 45.25-33.137 0-16.602-15.879-29.996-37.363-32.656zm-183.27-238.34h53.859v7.4219l-53.859-0.003906zm0 19.258h53.859v7.4219h-53.859zm0 19.262h53.859v7.4219h-53.859zm-26.953-77c0-3.6758 2.9922-6.668 6.668-6.668h95.207c3.6758 0 6.668 2.9922 6.668 6.668 0 3.6797-2.9922 6.6719-6.668 6.6719h-95.207c-3.6758 0-6.668-2.9922-6.668-6.6719zm80.816 18.512v8.125l-53.863 0.003906v-8.125zm-53.863 77.75h53.859v7.9141h-53.859zm-40.996 19.754h136.63v11.055l-136.63-0.003907zm62.398 22.891v83.656h11.84v-83.656h35.91v117.07h-81.254v-117.07zm153.98 191.88h-132.42v11.84c18.105 0 33.406 9.7539 33.406 21.301s-15.297 21.301-33.406 21.301l-146.87 0.003907c-18.109 0-33.406-9.7539-33.406-21.301 0-11.547 15.297-21.301 33.406-21.301h26.488v-11.84c-18.109 0-33.41-9.7539-33.41-21.297 0-11.547 15.297-21.301 33.41-21.301v-11.84l-26.488-0.003906c-18.109 0-33.406-9.7539-33.406-21.301s15.297-21.297 33.406-21.297h79.961v22.23h-22.973v11.84h155.7v-11.84h-27.785v-22.23h67.91c18.105 0 33.406 9.7539 33.406 21.297 0 11.547-15.297 21.301-33.406 21.301v11.84h26.484c18.109 0 33.41 9.7539 33.41 21.301-0.003906 11.543-15.301 21.297-33.414 21.297z"/>
  <path d="m284.85 478.11h11.84v24.078h-11.84z"/>
  <path d="m323.38 478.11h11.84v24.078h-11.84z"/>
  <path d="m304.12 469.68h11.84v48.152h-11.84z"/>
 </g>
</svg>
