<?xml version="1.0" encoding="UTF-8"?>
<svg width="752pt" height="752pt" version="1.1" viewBox="0 0 752 752" xmlns="http://www.w3.org/2000/svg">
 <g>
  <path d="m376 294.61h-177.59c-4.0859 0-7.3984 3.3164-7.3984 7.3984l-0.003907 236.79c0 4.0859 3.3164 7.3984 7.3984 7.3984h177.59c4.0859 0 7.3984-3.3164 7.3984-7.3984l0.003906-236.79c0-4.0859-3.3164-7.3984-7.3984-7.3984zm-77.059 207.19h-82.672l41.336-41.336zm20.926 0-22.199-22.199 19.137-19.137 41.336 41.336zm48.734-192.39v181.93l-46.566-46.566c-2.8945-2.8945-7.5703-2.8945-10.465 0l-24.367 24.367-24.367-24.367c-2.8945-2.8945-7.5703-2.8945-10.465 0l-46.566 46.566 0.003906-181.93h162.79zm-162.79 221.99v-14.801l162.79 0.003906v14.801z"/>
  <path d="m287.2 435.2c12.238 0 22.199-9.9609 22.199-22.199s-9.9609-22.199-22.199-22.199-22.199 9.9609-22.199 22.199 9.9609 22.199 22.199 22.199zm0-29.598c4.0781 0 7.3984 3.3242 7.3984 7.3984 0 4.0781-3.3242 7.3984-7.3984 7.3984-4.0781 0-7.3984-3.3242-7.3984-7.3984 0-4.0781 3.3242-7.3984 7.3984-7.3984z"/>
  <path d="m294.61 342.07c3.8906-3.8906 10.906-3.8906 14.801 0l4.3359 4.3359c4.7734 4.7734 11.113 7.3984 17.863 7.3984s13.098-2.625 17.863-7.3984l9.5664-9.5664-10.465-10.465-9.5664 9.5664c-3.8906 3.8906-10.906 3.8906-14.801 0l-4.3359-4.3359c-9.5391-9.5469-26.188-9.5469-35.727 0l-9.5664 9.5664 10.465 10.465z"/>
  <path d="m294.61 371.66c3.8906-3.8906 10.906-3.8906 14.801 0l4.3359 4.3359c4.7734 4.7734 11.113 7.3984 17.863 7.3984s13.098-2.625 17.863-7.3984l9.5664-9.5664-10.465-10.465-9.5664 9.5664c-3.8906 3.8906-10.906 3.8906-14.801 0l-4.3359-4.3359c-9.5391-9.5469-26.188-9.5469-35.727 0l-9.5664 9.5664 10.465 10.465z"/>
  <path d="m593.02 219.97c-1.5625-1.5703-2.4258-3.6484-2.4258-5.8672v-1.7891c0-2.2188 0.86719-4.3008 2.4258-5.8672l5.6094-5.6094c4.3594-4.3594 6.7617-10.16 6.7617-16.332 0-12.734-10.359-23.094-23.094-23.094-6.1719 0-11.973 2.4062-16.332 6.7617l-5.6094 5.6094c-1.5703 1.5625-3.6484 2.4258-5.8672 2.4258h-1.7891c-2.2188 0-4.3008-0.86719-5.8672-2.4258l-5.6094-5.6094c-4.3594-4.3594-10.16-6.7617-16.332-6.7617h-1.7891c-6.1719 0-11.973 2.4062-16.332 6.7617l-5.6094 5.6094c-1.5703 1.5625-3.6484 2.4258-5.8672 2.4258h-1.7891c-2.2188 0-4.3008-0.86719-5.8672-2.4258l-5.6094-5.6094c-4.3594-4.3594-10.16-6.7617-16.332-6.7617h-1.7891c-6.1719 0-11.973 2.4062-16.332 6.7617l-5.6094 5.6094c-1.5703 1.5625-3.6484 2.4258-5.8672 2.4258h-1.7891c-2.2188 0-4.3008-0.86719-5.8672-2.4258l-5.6094-5.6094c-4.3594-4.3594-10.16-6.7617-16.332-6.7617h-1.7891c-6.1719 0-11.973 2.4062-16.332 6.7617l-5.6094 5.6094c-1.5703 1.5625-3.6484 2.4258-5.8672 2.4258h-1.7891c-2.2188 0-4.3008-0.86719-5.8672-2.4258l-5.6094-5.6094c-4.3594-4.3594-10.16-6.7617-16.332-6.7617-12.734 0-23.094 10.359-23.094 23.094 0 6.1719 2.4062 11.973 6.7617 16.332l5.6094 5.6094c1.5625 1.5703 2.4258 3.6484 2.4258 5.8672v1.7891c0 2.2188-0.86719 4.3008-2.4258 5.8672l-5.6094 5.6094c-4.3594 4.3594-6.7617 10.16-6.7617 16.332v1.7891c0 5.0039 1.6484 9.7227 4.5742 13.668l-5.2109 5.2109c-1.5703 1.5625-3.6484 2.4258-5.8672 2.4258h-1.7891c-2.2188 0-4.3008-0.86719-5.8672-2.4258l-5.6094-5.6094c-4.3594-4.3594-10.16-6.7617-16.332-6.7617h-1.7891c-6.1719 0-11.973 2.4062-16.332 6.7617l-5.6094 5.6094c-1.5703 1.5625-3.6484 2.4258-5.8672 2.4258h-1.7891c-2.2188 0-4.3008-0.86719-5.8672-2.4258l-5.6094-5.6094c-4.3594-4.3594-10.16-6.7617-16.332-6.7617h-1.7891c-6.1719 0-11.973 2.4062-16.332 6.7617l-5.6094 5.6094c-1.5703 1.5625-3.6484 2.4258-5.8672 2.4258h-1.7891c-2.2188 0-4.3008-0.86719-5.8672-2.4258l-5.6094-5.6094c-4.3594-4.3594-10.16-6.7617-16.332-6.7617-12.734 0-23.094 10.359-23.094 23.094 0 6.1719 2.4062 11.973 6.7617 16.332l5.6094 5.6094c1.5625 1.5703 2.4258 3.6484 2.4258 5.8672v1.7891c0 2.2188-0.86719 4.3008-2.4258 5.8672l-5.6094 5.6094c-4.3594 4.3594-6.7617 10.16-6.7617 16.332v1.7891c0 6.1719 2.4062 11.973 6.7617 16.332l5.6094 5.6094c1.5625 1.5703 2.4258 3.6484 2.4258 5.8672v1.7891c0 2.2188-0.86719 4.3008-2.4258 5.8672l-5.6094 5.6094c-4.3594 4.3594-6.7617 10.16-6.7617 16.332v1.7891c0 6.1719 2.4062 11.973 6.7617 16.332l5.6094 5.6094c1.5625 1.5703 2.4258 3.6484 2.4258 5.8672v1.7891c0 2.2188-0.86719 4.3008-2.4258 5.8672l-5.6094 5.6094c-4.3594 4.3594-6.7617 10.16-6.7617 16.332v1.7891c0 6.1719 2.4062 11.973 6.7617 16.332l5.6094 5.6094c1.5625 1.5703 2.4258 3.6484 2.4258 5.8672v1.7891c0 2.2188-0.86719 4.3008-2.4258 5.8672l-5.6094 5.6094c-4.3594 4.3594-6.7617 10.16-6.7617 16.332v1.7891c0 6.1719 2.4062 11.973 6.7617 16.332l5.6094 5.6094c1.5625 1.5703 2.4258 3.6484 2.4258 5.8672v1.7891c0 2.2188-0.86719 4.3008-2.4258 5.8672l-5.6094 5.6094c-4.3594 4.3594-6.7617 10.16-6.7617 16.332 0 12.734 10.359 23.094 23.094 23.094 6.1719 0 11.973-2.4062 16.332-6.7617l5.6094-5.6094c1.5703-1.5625 3.6484-2.4258 5.8672-2.4258h1.7891c2.2188 0 4.3008 0.86719 5.8672 2.4258l5.6094 5.6094c4.3594 4.3594 10.16 6.7617 16.332 6.7617h1.7891c6.1719 0 11.973-2.4062 16.332-6.7617l5.6094-5.6094c1.5703-1.5625 3.6484-2.4258 5.8672-2.4258h1.7891c2.2188 0 4.3008 0.86719 5.8672 2.4258l5.6094 5.6094c4.3594 4.3594 10.16 6.7617 16.332 6.7617h1.7891c6.1719 0 11.973-2.4062 16.332-6.7617l5.6094-5.6094c1.5703-1.5625 3.6484-2.4258 5.8672-2.4258h1.7891c2.2188 0 4.3008 0.86719 5.8672 2.4258l5.6094 5.6094c4.3594 4.3594 10.16 6.7617 16.332 6.7617h1.7891c6.1719 0 11.973-2.4062 16.332-6.7617l5.6094-5.6094c1.5703-1.5625 3.6484-2.4258 5.8672-2.4258h1.7891c2.2188 0 4.3008 0.86719 5.8672 2.4258l5.6094 5.6094c4.3594 4.3594 10.16 6.7617 16.332 6.7617 12.734 0 23.094-10.359 23.094-23.094 0-6.1719-2.4062-11.973-6.7617-16.332l-5.6094-5.6094c-1.5625-1.5703-2.4258-3.6484-2.4258-5.8672v-1.7891c0-2.2188 0.86719-4.3008 2.4258-5.8672l5.6094-5.6094c4.3594-4.3594 6.7617-10.16 6.7617-16.332v-1.7891c0-5.0039-1.6484-9.7227-4.5742-13.668l5.2109-5.2109c1.5703-1.5625 3.6484-2.4258 5.8672-2.4258h1.7891c2.2188 0 4.3008 0.86719 5.8672 2.4258l5.6094 5.6094c4.3594 4.3594 10.16 6.7617 16.332 6.7617h1.7891c6.1719 0 11.973-2.4062 16.332-6.7617l5.6094-5.6094c1.5703-1.5625 3.6484-2.4258 5.8672-2.4258h1.7891c2.2188 0 4.3008 0.86719 5.8672 2.4258l5.6094 5.6094c4.3594 4.3594 10.16 6.7617 16.332 6.7617h1.7891c6.1719 0 11.973-2.4062 16.332-6.7617l5.6094-5.6094c1.5703-1.5625 3.6484-2.4258 5.8672-2.4258h1.7891c2.2188 0 4.3008 0.86719 5.8672 2.4258l5.6094 5.6094c4.3594 4.3594 10.16 6.7617 16.332 6.7617 12.734 0 23.094-10.359 23.094-23.094 0-6.1719-2.4062-11.973-6.7617-16.332l-5.6094-5.6094c-1.5625-1.5703-2.4258-3.6484-2.4258-5.8672v-1.7891c0-2.2188 0.86719-4.3008 2.4258-5.8672l5.6094-5.6094c4.3594-4.3594 6.7617-10.16 6.7617-16.332v-1.7891c0-6.1719-2.4062-11.973-6.7617-16.332l-5.6094-5.6094c-1.5625-1.5703-2.4258-3.6484-2.4258-5.8672v-1.7891c0-2.2188 0.86719-4.3008 2.4258-5.8672l5.6094-5.6094c4.3594-4.3594 6.7617-10.16 6.7617-16.332v-1.7891c0-6.1719-2.4062-11.973-6.7617-16.332l-5.6094-5.6094c-1.5625-1.5703-2.4258-3.6484-2.4258-5.8672v-1.7891c0-2.2188 0.86719-4.3008 2.4258-5.8672l5.6094-5.6094c4.3594-4.3594 6.7617-10.16 6.7617-16.332v-1.7891c0-6.1719-2.4062-11.973-6.7617-16.332l-5.6094-5.6094c-1.5625-1.5703-2.4258-3.6484-2.4258-5.8672v-1.7891c0-2.2188 0.86719-4.3008 2.4258-5.8672l5.6094-5.6094c4.3594-4.3594 6.7617-10.16 6.7617-16.332v-1.7891c0-6.1719-2.4062-11.973-6.7617-16.332zm-180.02 290.12c0 2.2188-0.86719 4.3008-2.4258 5.8672l-5.6094 5.6094c-4.3594 4.3594-6.7617 10.16-6.7617 16.332v1.7891c0 6.1719 2.4062 11.973 6.7617 16.332l5.6094 5.6094c1.5625 1.5703 2.4258 3.6484 2.4258 5.8672 0 4.5742-3.7227 8.2969-8.2969 8.2969-2.2188 0-4.3008-0.86719-5.8672-2.4258l-5.6094-5.6094c-4.3594-4.3594-10.16-6.7617-16.332-6.7617h-1.7891c-6.1719 0-11.973 2.4062-16.332 6.7617l-5.6094 5.6094c-1.5703 1.5625-3.6484 2.4258-5.8672 2.4258h-1.7891c-2.2188 0-4.3008-0.86719-5.8672-2.4258l-5.6094-5.6094c-4.3594-4.3594-10.16-6.7617-16.332-6.7617h-1.7891c-6.1719 0-11.973 2.4062-16.332 6.7617l-5.6094 5.6094c-1.5703 1.5625-3.6484 2.4258-5.8672 2.4258h-1.7891c-2.2188 0-4.3008-0.86719-5.8672-2.4258l-5.6094-5.6094c-4.3594-4.3594-10.16-6.7617-16.332-6.7617h-1.7891c-6.1719 0-11.973 2.4062-16.332 6.7617l-5.6094 5.6094c-1.5703 1.5625-3.6484 2.4258-5.8672 2.4258h-1.7891c-2.2188 0-4.3008-0.86719-5.8672-2.4258l-5.6094-5.6094c-4.3594-4.3594-10.16-6.7617-16.332-6.7617h-1.7891c-6.1719 0-11.973 2.4062-16.332 6.7617l-5.6094 5.6094c-1.5703 1.5625-3.6484 2.4258-5.8672 2.4258-4.5742 0-8.2969-3.7227-8.2969-8.2969 0-2.2188 0.86719-4.3008 2.4258-5.8672l5.6094-5.6094c4.3594-4.3594 6.7617-10.16 6.7617-16.332v-1.7891c0-6.1719-2.4062-11.973-6.7617-16.332l-5.6094-5.6094c-1.5625-1.5703-2.4258-3.6484-2.4258-5.8672v-1.7891c0-2.2188 0.86719-4.3008 2.4258-5.8672l5.6094-5.6094c4.3594-4.3594 6.7617-10.16 6.7617-16.332v-1.7891c0-6.1719-2.4062-11.973-6.7617-16.332l-5.6094-5.6094c-1.5625-1.5703-2.4258-3.6484-2.4258-5.8672v-1.7891c0-2.2188 0.86719-4.3008 2.4258-5.8672l5.6094-5.6094c4.3594-4.3594 6.7617-10.16 6.7617-16.332v-1.7891c0-6.1719-2.4062-11.973-6.7617-16.332l-5.6094-5.6094c-1.5625-1.5703-2.4258-3.6484-2.4258-5.8672v-1.7891c0-2.2188 0.86719-4.3008 2.4258-5.8672l5.6094-5.6094c4.3594-4.3594 6.7617-10.16 6.7617-16.332v-1.7891c0-6.1719-2.4062-11.973-6.7617-16.332l-5.6094-5.6094c-1.5625-1.5703-2.4258-3.6484-2.4258-5.8672v-1.7891c0-2.2188 0.86719-4.3008 2.4258-5.8672l5.6094-5.6094c4.3594-4.3594 6.7617-10.16 6.7617-16.332v-1.7891c0-6.1719-2.4062-11.973-6.7617-16.332l-5.6094-5.6094c-1.5625-1.5703-2.4258-3.6484-2.4258-5.8672 0-4.5742 3.7227-8.2969 8.2969-8.2969 2.2188 0 4.3008 0.86719 5.8672 2.4258l5.6094 5.6094c4.3594 4.3594 10.16 6.7617 16.332 6.7617h1.7891c6.1719 0 11.973-2.4062 16.332-6.7617l5.6094-5.6094c1.5703-1.5625 3.6484-2.4258 5.8672-2.4258h1.7891c2.2188 0 4.3008 0.86719 5.8672 2.4258l5.6094 5.6094c4.3594 4.3594 10.16 6.7617 16.332 6.7617h1.7891c6.1719 0 11.973-2.4062 16.332-6.7617l5.6094-5.6094c1.5703-1.5625 3.6484-2.4258 5.8672-2.4258h1.7891c2.2188 0 4.3008 0.86719 5.8672 2.4258l5.6094 5.6094c4.3594 4.3594 10.16 6.7617 16.332 6.7617h1.7891c6.1719 0 11.973-2.4062 16.332-6.7617l5.6094-5.6094c1.5703-1.5625 3.6484-2.4258 5.8672-2.4258h1.7891c2.2188 0 4.3008 0.86719 5.8672 2.4258l5.6094 5.6094c4.3594 4.3594 10.16 6.7617 16.332 6.7617h1.7891c6.1719 0 11.973-2.4062 16.332-6.7617l5.6094-5.6094c1.5703-1.5625 3.6484-2.4258 5.8672-2.4258 4.5742 0 8.2969 3.7227 8.2969 8.2969 0 2.2188-0.86719 4.3008-2.4258 5.8672l-5.6094 5.6094c-4.3594 4.3594-6.7617 10.16-6.7617 16.332v1.7891c0 6.1719 2.4062 11.973 6.7617 16.332l5.6094 5.6094c1.5625 1.5703 2.4258 3.6484 2.4258 5.8672v1.7891c0 2.2188-0.86719 4.3008-2.4258 5.8672l-5.6094 5.6094c-4.3594 4.3594-6.7617 10.16-6.7617 16.332v1.7891c0 6.1719 2.4062 11.973 6.7617 16.332l5.6094 5.6094c1.5625 1.5703 2.4258 3.6484 2.4258 5.8672v1.7891c0 2.2188-0.86719 4.3008-2.4258 5.8672l-5.6094 5.6094c-4.3594 4.3594-6.7617 10.16-6.7617 16.332v1.7891c0 6.1719 2.4062 11.973 6.7617 16.332l5.6094 5.6094c1.5625 1.5703 2.4258 3.6484 2.4258 5.8672v1.7891c0 2.2188-0.86719 4.3008-2.4258 5.8672l-5.6094 5.6094c-4.3594 4.3594-6.7617 10.16-6.7617 16.332v1.7891c0 6.1719 2.4062 11.973 6.7617 16.332l5.6094 5.6094c1.5625 1.5703 2.4258 3.6484 2.4258 5.8672zm13.762-67.492c-1.0742-3.6641-2.9531-7.0508-5.7266-9.8281l-4.9727-4.9727h130.13v14.801zm-5.7266-34.57c4.3594-4.3594 6.7617-10.16 6.7617-16.332v-1.7891c0-3.1445-0.64453-6.1953-1.8359-9.0039l9.2344-9.2344 41.336 41.336h-60.469l4.9727-4.9727zm76.426 4.9727-22.199-22.199 19.137-19.137 41.336 41.336zm48.734-10.465-46.566-46.566c-2.8945-2.8945-7.5703-2.8945-10.465 0l-24.367 24.367-24.367-24.367c-2.8945-2.8945-7.5703-2.8945-10.465 0l-13.27 13.27-1.2734-1.2734c-1.5625-1.5703-2.4258-3.6484-2.4258-5.8672v-1.7891c0-2.2188 0.86719-4.3008 2.4258-5.8672l5.6094-5.6094c4.3594-4.3594 6.7617-10.16 6.7617-16.332v-1.7891c0-6.1719-2.4062-11.973-6.7617-16.332l-5.6094-5.6094c-1.5625-1.5703-2.4258-3.6484-2.4258-5.8672v-1.7891c0-2.2188 0.86719-4.3008 2.4258-5.8672l5.6094-5.6094c4.3594-4.3594 6.7617-10.16 6.7617-16.332 0-12.734-10.359-23.094-23.094-23.094-6.1719 0-11.973 2.4062-16.332 6.7617l-4.9727 4.9727v-41.336h162.79v181.93zm44.398-158.84c0 2.2188-0.86719 4.3008-2.4258 5.8672l-5.6094 5.6094c-4.3594 4.3594-6.7617 10.16-6.7617 16.332v1.7891c0 6.1719 2.4062 11.973 6.7617 16.332l5.6094 5.6094c1.5625 1.5703 2.4258 3.6484 2.4258 5.8672v1.7891c0 2.2188-0.86719 4.3008-2.4258 5.8672l-5.6094 5.6094c-4.3594 4.3594-6.7617 10.16-6.7617 16.332v1.7891c0 6.1719 2.4062 11.973 6.7617 16.332l5.6094 5.6094c1.5625 1.5703 2.4258 3.6484 2.4258 5.8672v1.7891c0 2.2188-0.86719 4.3008-2.4258 5.8672l-5.6094 5.6094c-4.3594 4.3594-6.7617 10.16-6.7617 16.332v1.7891c0 6.1719 2.4062 11.973 6.7617 16.332l5.6094 5.6094c1.5625 1.5703 2.4258 3.6484 2.4258 5.8672v1.7891c0 2.2188-0.86719 4.3008-2.4258 5.8672l-5.6094 5.6094c-4.3594 4.3594-6.7617 10.16-6.7617 16.332v1.7891c0 6.1719 2.4062 11.973 6.7617 16.332l5.6094 5.6094c1.5625 1.5703 2.4258 3.6484 2.4258 5.8672 0 4.5742-3.7227 8.2969-8.2969 8.2969-2.2188 0-4.3008-0.86719-5.8672-2.4258l-5.6094-5.6094c-4.3594-4.3594-10.16-6.7617-16.332-6.7617h-1.7891c-6.1719 0-11.973 2.4062-16.332 6.7617l-5.6094 5.6094c-1.5703 1.5625-3.6484 2.4258-5.8672 2.4258h-1.7891c-2.2188 0-4.3008-0.86719-5.8672-2.4258l-5.6094-5.6094c-4.3594-4.3594-10.16-6.7617-16.332-6.7617h-1.7891c-6.1719 0-11.973 2.4062-16.332 6.7617l-5.6094 5.6094c-1.5703 1.5625-3.6484 2.4258-5.8672 2.4258h-1.7891c-2.2188 0-4.3008-0.86719-5.8672-2.4258l-5.6094-5.6094c-4.3594-4.3594-10.16-6.7617-16.332-6.7617h-1.7891c-6.1719 0-11.973 2.4062-16.332 6.7617l-4.4023 4.4023c-0.33984-0.91016-0.57031-1.8711-0.57031-2.8711v-1.7891c0-2.2188 0.86719-4.3008 2.4258-5.8672l5.6094-5.6094c2.7734-2.7734 4.6562-6.1641 5.7266-9.8281h126.83c4.0859 0 7.3984-3.3164 7.3984-7.3984l-0.003906-236.79c0-4.0859-3.3164-7.3984-7.3984-7.3984h-177.59c-4.0859 0-7.3984 3.3164-7.3984 7.3984v48.734l-4.9727-4.9727c-4.3594-4.3594-10.16-6.7617-16.332-6.7617h-1.7891c-1.0664 0-2.0938 0.16406-3.1367 0.30469l-0.94141-0.94141c-1.5625-1.5703-2.4258-3.6484-2.4258-5.8672v-1.7891c0-2.2188 0.86719-4.3008 2.4258-5.8672l5.6094-5.6094c4.3594-4.3594 6.7617-10.16 6.7617-16.332v-1.7891c0-6.1719-2.4062-11.973-6.7617-16.332l-5.6094-5.6094c-1.5625-1.5703-2.4258-3.6484-2.4258-5.8672 0-4.5742 3.7227-8.2969 8.2969-8.2969 2.2188 0 4.3008 0.86719 5.8672 2.4258l5.6094 5.6094c4.3594 4.3594 10.16 6.7617 16.332 6.7617h1.7891c6.1719 0 11.973-2.4062 16.332-6.7617l5.6094-5.6094c1.5703-1.5625 3.6484-2.4258 5.8672-2.4258h1.7891c2.2188 0 4.3008 0.86719 5.8672 2.4258l5.6094 5.6094c4.3594 4.3594 10.16 6.7617 16.332 6.7617h1.7891c6.1719 0 11.973-2.4062 16.332-6.7617l5.6094-5.6094c1.5703-1.5625 3.6484-2.4258 5.8672-2.4258h1.7891c2.2188 0 4.3008 0.86719 5.8672 2.4258l5.6094 5.6094c4.3594 4.3594 10.16 6.7617 16.332 6.7617h1.7891c6.1719 0 11.973-2.4062 16.332-6.7617l5.6094-5.6094c1.5703-1.5625 3.6484-2.4258 5.8672-2.4258h1.7891c2.2188 0 4.3008 0.86719 5.8672 2.4258l5.6094 5.6094c4.3594 4.3594 10.16 6.7617 16.332 6.7617h1.7891c6.1719 0 11.973-2.4062 16.332-6.7617l5.6094-5.6094c1.5703-1.5625 3.6484-2.4258 5.8672-2.4258 4.5742 0 8.2969 3.7227 8.2969 8.2969 0 2.2188-0.86719 4.3008-2.4258 5.8672l-5.6094 5.6094c-4.3594 4.3594-6.7617 10.16-6.7617 16.332v1.7891c0 6.1719 2.4062 11.973 6.7617 16.332l5.6094 5.6094c1.5625 1.5703 2.4258 3.6484 2.4258 5.8672v1.7891z"/>
  <path d="m464.8 346.4c12.238 0 22.199-9.9609 22.199-22.199s-9.9609-22.199-22.199-22.199-22.199 9.9609-22.199 22.199 9.9609 22.199 22.199 22.199zm0-29.598c4.0781 0 7.3984 3.3242 7.3984 7.3984 0 4.0781-3.3242 7.3984-7.3984 7.3984-4.0781 0-7.3984-3.3242-7.3984-7.3984 0-4.0781 3.3242-7.3984 7.3984-7.3984z"/>
  <path d="m472.2 253.27c3.8906-3.8906 10.906-3.8906 14.801 0l4.3359 4.3359c4.7734 4.7734 11.113 7.3984 17.863 7.3984s13.098-2.625 17.863-7.3984l9.5664-9.5664-10.465-10.465-9.5664 9.5664c-3.8906 3.8906-10.906 3.8906-14.801 0l-4.3359-4.3359c-9.5391-9.5469-26.188-9.5469-35.727 0l-9.5664 9.5664 10.465 10.465z"/>
  <path d="m472.2 282.87c3.8906-3.8906 10.906-3.8906 14.801 0l4.3359 4.3359c4.7734 4.7734 11.113 7.3984 17.863 7.3984s13.098-2.625 17.863-7.3984l9.5664-9.5664-10.465-10.465-9.5664 9.5664c-3.8906 3.8906-10.906 3.8906-14.801 0l-4.3359-4.3359c-9.5391-9.5469-26.188-9.5469-35.727 0l-9.5664 9.5664 10.465 10.465z"/>
 </g>
</svg>
