<?xml version="1.0" encoding="UTF-8"?>
<svg width="752pt" height="752pt" version="1.1" viewBox="0 0 752 752" xmlns="http://www.w3.org/2000/svg">
 <path d="m555.78 277.14c-0.15234-2.4531-1.2461-4.5273-2.9844-5.8516-1.3789-1.9609-3.7773-3.207-6.2383-3.3984-1.8008-0.13672-3.5938-0.28125-5.3945-0.41797-3.2266-0.25391-6.4531-0.50391-9.6797-0.75391-5.3359-0.41797-10.68-0.83203-16.012-1.2461-2.5156-0.19922-5.0234-0.39453-7.5391-0.58594-0.57422-0.042969-1.1445-0.089844-1.7305-0.13281-0.23047-0.019531-0.40625-0.03125-0.53906-0.042968-0.46484-0.082032-0.91406-0.18359-1.3672-0.29688-0.11719-0.03125-0.22266-0.058594-0.3125-0.082031-0.32812-0.1875-1.1562-0.94141-0.89062-0.64844-0.125-0.125-0.24609-0.25391-0.375-0.38281 0.44531 0.40625-0.77344-1.0977-0.96094-1.4297-0.39844-0.69141-0.75391-1.4023-1.0781-2.1211-0.046875-0.09375-0.23047-0.53906-0.33984-0.78516-0.09375-0.24609-0.20703-0.53516-0.24219-0.60938-1.5586-4.0273-3.1211-8.0586-5.1133-11.895-3.8867-7.4492-9.5742-14.613-17.219-18.457-8.6719-4.3633-18.992-4.8828-28.527-5.5508-0.77734-0.050781-1.5586-0.058593-2.3398-0.097656l8.125-45.715s-42.32 28.707-51.973 57.527c-1.0664 0.91406-2.1406 1.8086-3.1406 2.8516-11.723 12.27-14.492 27.613-17.129 43.176-0.86328 5.0859-1.7109 10.195-2.8477 15.227-0.89844 3.9922-1.9844 7.9219-3.4102 11.77-7.6641 20.688-22.977 36.914-39.797 49.961-21.188 16.441-48.184 29.484-65.926 49.414-12.809 14.391-21.438 31.91-26.418 50.457-0.33984 1.2695-0.66406 2.5391-0.96484 3.8086-1.2461 5.1484-2.2227 10.355-2.9961 15.602-1.293 3.9336-2.3945 7.9141-3.3398 11.934-3.0312 12.871-4.3984 26.105-4.9766 39.316-0.039062 0.74219-0.066406 1.4805-0.09375 2.2266-1.8867-1.1875-3.7773-2.3672-5.6797-3.543-5.6562-3.4922-11.793-6.0391-18.516-4.0078-9.3828 2.8477-12.84 11.926-11.559 20.406 0.5625 3.7188 2.043 7.3281 4.3281 10.242 8.9219 11.352 25.766 15.906 39.273 18.262 15.031 2.6172 30.266 3.7188 45.602 4.0117 30.988 0.59375 62.355-2.1094 93.199-2.2305 4.1055-0.019532 8.1992 0.007812 12.285 0.097656 7.9102 0.17188 13.781-6.6055 14.117-14.117 0.35156-7.7383-6.7383-13.961-14.117-14.117-4.5625-0.09375-9.1211-0.14062-13.684-0.15234-0.66016-0.082031-1.3242-0.11328-1.9922-0.082031l-1.793 0.085937c-2.1641 0.007813-4.3281 0.027344-6.4883 0.058594-7.8047 0.10547-15.613 0.35156-23.41 0.72266-2.4805 0.11719-3.793 1.1562-5.2891-1.0117 27.453-3.4727 34.234-23.562 43.055-45.945 0.027344-0.070312 0.058594-0.13672 0.085937-0.20703 4.6797-11.879 15.391-6.5703 26.094-6.5703-0.23828 0-0.47266 1.0117-0.68359 2.8047-1.3633 11.551-1.8086 55.375 2.4023 66.805 0.31641 0.85156 0.65234 1.5234 1.0234 1.9883 7.5312 9.5 21.629 12.707 32.977 8.918 0.003907 0 0.015625 0 0.019531-0.007812 1.4453-0.47656 2.8359-1.0664 4.168-1.7852 0.007813 0 0.019531-0.003906 0.023438-0.007812 2.2773-1.2109 4.3672-2.7617 6.1797-4.6523 4.0352-4.2227 5.7539-10.133 4.1836-15.832-0.77344-2.7578-2.168-5.1484-4.1836-7.1836-2.0312-2.0117-4.4297-3.4102-7.1836-4.1836-2.4922-1.0195-5.0586-1.6523-7.6641-1.9844-1.043-0.13672 0.84766-42.703 1.4688-46.496 0.18359-1.1367 0.4375-2.2539 0.73438-3.3594 3.0547-11.324 11.48-21.008 15.52-32.066 4.6211-12.668 6.8906-26.195 6.5352-39.676-0.37109-13.965-3.4922-27.895-0.015624-41.695 3.3086-13.141 12.051-23.812 23.289-31.047 11.535-7.4297 23.891-7.1133 36.898-8.9844 11.723-1.6875 18.672-12.652 19.395-23.953 3.7969-2.3047 7.1094-5.332 9.457-9.25 3.1523-5.2656 3.9336-11.266 3.918-17.266 0.003906-1.9375-0.078125-3.8555-0.20312-5.7578zm-74.402-13.676c-3.0156 0-5.4648-2.4453-5.4648-5.4648 0-3.0156 2.4453-5.4648 5.4648-5.4648 3.0156 0 5.4648 2.4453 5.4648 5.4648-0.007813 3.0234-2.4492 5.4648-5.4648 5.4648z"/>
</svg>
